<svg xmlns="http://www.w3.org/2000/svg" style="display: none;">
  
    <symbol id="voting-icon-facebook" viewBox="0 0 512 512">
      <path d="m512 85c0-44-40-85-85-85l-342 0c-45 0-85 41-85 85l0 342c0 45 40 85 85 85l171 0 0-193-63 0 0-86 63 0 0-33c0-57 43-109 96-109l69 0 0 85-69 0c-8 0-16 10-16 23l0 34 85 0 0 86-85 0 0 193 91 0c45 0 85-40 85-85z"/>
    </symbol>
  
    <symbol id="voting-icon-search" viewBox="0 0 512 512">
      <path d="m222 31c86 0 171 57 171 170 0 113-85 170-171 170-87 0-171-57-171-170 0-113 84-170 171-170z m0-31c-100 0-202 67-202 201 0 134 102 201 202 201 38 1 75-9 108-28l131 138 31-31-127-134c40-38 61-91 59-146 0-134-102-201-202-201z"/>
    </symbol>
  
    <symbol id="voting-icon-thumbs-down" viewBox="0 0 512 512">
      <path d="m388 285c-58 86-79 111-76 161 4 50-6 64-30 66-23 3-68-10-75-92-4-36 21-105 21-105l-176-1c-25 0-45-10-45-44 0-33 35-42 35-42-14-7-23-21-22-36 0-22 17-39 39-40-15-6-24-21-20-37 2-19 17-34 36-37-13-9-18-24-13-38 8-19 29-40 76-40l220 0c13-2 26 5 32 17l0 257c0 4-1 7-2 11z m17-285l86 0 0 301-86 0z m14 0l86 0 0 301-86 0z"/>
    </symbol>
  
    <symbol id="voting-icon-thumbs-up" viewBox="0 0 512 512">
      <path d="m120 227c60-86 82-111 78-161-4-50 7-64 31-66 24-3 70 10 78 92 3 36-23 105-23 105l182 0c13-1 25 3 34 12 9 8 14 21 12 33 0 32-36 42-36 42 14 6 23 20 23 36 0 22-18 40-40 40 15 5 24 21 20 37-3 19-18 34-37 37 13 8 18 24 13 39-8 18-29 39-78 39l-226 0c-13 2-26-5-32-17l0-257c-1-4 0-7 1-11z m-106-16l89 0 0 301-89 0z m-14 0l89 0 0 301-89 0z"/>
    </symbol>
  
    <symbol id="voting-icon-twitter" viewBox="0 0 512 512">
      <path d="m512 97c-19 9-39 14-60 17 21-13 38-34 46-58-20 12-43 20-67 25-19-20-46-33-77-33-58 0-105 47-105 105 0 8 1 16 3 24-87-4-165-46-216-110-9 16-15 34-15 53 0 36 19 69 47 87-17 0-33-5-47-13l0 2c0 50 36 93 84 103-9 2-18 3-28 3-7 0-13 0-20-2 14 42 53 72 98 73-35 28-81 45-130 45-8 0-17 0-25-1 46 30 102 47 161 47 193 0 299-160 299-299l-1-13c21-15 39-34 53-55z"/>
    </symbol>
  
    <symbol id="voting-icon-cross-out" viewBox="0 0 512 512">
      <path d="m512 16l-16-16-240 240-240-240-16 16 240 240-240 240 16 16 240-240 240 240 16-16-240-240z"/>
    </symbol>
  
    <symbol id="voting-icon-wikipedia" viewBox="0 0 512 512">
      <path d="m512 78c0 0-80 0-106 0l-8 1 0 10c0 2 4 3 5 3 1 1 3 2 4 2l10 0c11 1 14 3 18 7 5 4 5 11 2 21l-93 244-4-1-59-134c0-2 1-3 1-3l49-100c5-10 11-20 13-24 6-8 8-10 22-10 3 0 4-2 4-5l0-10-1-1c0 0-58 0-85 0l0 1 0 10c0 2 0 3 1 3 1 1 1 2 2 2l4 0c11 1 16 4 17 6 3 3 4 7-2 22l-38 82-33-76c-12-25-14-32 2-33l5-1c3 0 3-2 3-4l0-11-1-1c0 0-62 0-90 0l0 1 0 11c0 2 2 3 6 4 16 2 16 4 31 38 3 5 9 20 9 20l36 76c0 0 4 10 10 25l-51 112-3 0c0 0-80-185-103-247-2-6-3-11-3-14 0-6 5-9 15-10l16 0c3 0 8-2 8-4l0-11-5-1c0 0-97 0-117 0l-3 1 0 11c0 2 3 3 7 4 12 0 20 3 24 6 4 4 8 13 13 27 29 76 91 212 121 290 8 21 19 25 32-1 14-27 41-88 61-134 19 45 44 106 56 134 10 22 21 24 32 1 30-72 116-289 116-289 4-10 9-19 16-25 6-6 16-9 30-9 3 0 4-2 4-5l0-10z"/>
    </symbol>
  
</svg>
